<?xml version="1.0" standalone="no"?>
<!DOCTYPE svg PUBLIC "-//W3C//DTD SVG 20010904//EN"
 "http://www.w3.org/TR/2001/REC-SVG-20010904/DTD/svg10.dtd">
<svg version="1.0" xmlns="http://www.w3.org/2000/svg"
 width="363.000000pt" height="274.000000pt" viewBox="0 0 363.000000 274.000000"
 preserveAspectRatio="xMidYMid meet">

<g transform="translate(0.000000,274.000000) scale(0.100000,-0.100000)"
fill="#000000" stroke="none">
<path d="M863 2725 c-18 -8 -42 -29 -53 -47 -20 -33 -20 -47 -20 -1308 0
-1230 1 -1276 19 -1306 20 -33 75 -64 114 -64 29 0 85 38 200 138 47 39 89 72
94 72 5 0 49 -34 98 -76 122 -104 145 -121 181 -128 47 -10 86 11 204 113 58
50 110 91 115 91 6 0 52 -36 103 -79 117 -101 140 -117 178 -125 47 -10 86 11
204 113 58 50 110 91 115 91 6 0 57 -41 115 -91 101 -87 151 -119 186 -119 31
0 87 34 105 64 18 30 19 76 19 1306 0 1230 -1 1276 -19 1306 -20 33 -75 64
-114 64 -29 0 -85 -38 -200 -137 -47 -40 -89 -73 -94 -73 -5 0 -49 34 -98 76
-122 104 -145 121 -181 128 -47 10 -86 -11 -204 -113 -58 -50 -109 -91 -115
-91 -5 0 -52 36 -103 79 -117 101 -140 117 -178 125 -47 10 -86 -11 -204 -113
-58 -50 -109 -91 -115 -91 -5 0 -57 41 -115 91 -138 119 -170 133 -237 104z
m1522 -780 c36 -35 35 -96 -1 -124 -26 -21 -35 -21 -574 -21 l-547 0 -22 24
c-40 43 -28 116 24 136 11 5 262 9 558 9 l538 1 24 -25z m-28 -495 c62 -22 75
-115 21 -150 -20 -13 -101 -15 -543 -18 -341 -2 -532 0 -556 7 -44 13 -64 48
-60 104 1 21 33 49 64 59 39 11 1041 9 1074 -2z m32 -534 c30 -32 31 -90 2
-120 -21 -21 -26 -21 -571 -24 l-550 -2 -25 24 c-36 36 -35 97 1 125 26 21 35
21 574 21 l547 0 22 -24z"/>
</g>
</svg>
